<svg preserveAspectRatio="none" width="100%" height="100%" overflow="visible" style="display: block;" viewBox="0 0 286 429" fill="none" xmlns="http://www.w3.org/2000/svg">
<g id="Ellipse 110" style="mix-blend-mode:overlay" filter="url(#filter0_f_10_297)">
<path d="M142.877 13.0195C178.044 13.0195 210.411 34.8629 234.177 71.2773C257.919 107.655 272.734 158.15 272.734 214.129C272.734 270.107 257.919 320.601 234.177 356.979C210.411 393.394 178.044 415.237 142.877 415.237C107.71 415.237 75.344 393.394 51.5781 356.979C27.836 320.601 13.0196 270.108 13.0195 214.129C13.0195 158.15 27.836 107.655 51.5781 71.2773C75.344 34.8631 107.71 13.0196 142.877 13.0195Z" stroke="url(#paint0_linear_10_297)" stroke-width="8.03937"/>
</g>
<defs>
<filter id="filter0_f_10_297" x="0.0673656" y="0.0673656" width="285.619" height="428.123" filterUnits="userSpaceOnUse" color-interpolation-filters="sRGB">
<feFlood flood-opacity="0" result="BackgroundImageFix"/>
<feBlend mode="normal" in="SourceGraphic" in2="BackgroundImageFix" result="shape"/>
<feGaussianBlur stdDeviation="4.46632" result="effect1_foregroundBlur_10_297"/>
</filter>
<linearGradient id="paint0_linear_10_297" x1="142.877" y1="9" x2="142.877" y2="419.257" gradientUnits="userSpaceOnUse">
<stop stop-color="white"/>
<stop offset="1" stop-color="white" stop-opacity="0"/>
</linearGradient>
</defs>
</svg>
