<svg preserveAspectRatio="none" width="100%" height="100%" overflow="visible" style="display: block;" viewBox="0 0 798 803" fill="none" xmlns="http://www.w3.org/2000/svg">
<g id="Ellipse 13" filter="url(#filter0_d_10_523)">
<path d="M794 395C794 613.152 615.784 796.2 395.5 794.249C177.139 792.314 4 613.152 4 395C4 176.848 180.848 0 399 0C617.152 0 794 176.848 794 395Z" fill="url(#paint0_linear_10_523)"/>
<path d="M399 0.5C616.876 0.5 793.5 177.124 793.5 395C793.5 612.883 615.502 795.698 395.505 793.749C177.425 791.817 4.5 612.885 4.5 395C4.5 177.124 181.124 0.5 399 0.5Z" stroke="var(--stroke-0, black)"/>
</g>
<defs>
<filter id="filter0_d_10_523" x="0" y="0" width="798" height="802.264" filterUnits="userSpaceOnUse" color-interpolation-filters="sRGB">
<feFlood flood-opacity="0" result="BackgroundImageFix"/>
<feColorMatrix in="SourceAlpha" type="matrix" values="0 0 0 0 0 0 0 0 0 0 0 0 0 0 0 0 0 0 127 0" result="hardAlpha"/>
<feOffset dy="4"/>
<feGaussianBlur stdDeviation="2"/>
<feComposite in2="hardAlpha" operator="out"/>
<feColorMatrix type="matrix" values="0 0 0 0 0 0 0 0 0 0 0 0 0 0 0 0 0 0 0.25 0"/>
<feBlend mode="normal" in2="BackgroundImageFix" result="effect1_dropShadow_10_523"/>
<feBlend mode="normal" in="SourceGraphic" in2="effect1_dropShadow_10_523" result="shape"/>
</filter>
<linearGradient id="paint0_linear_10_523" x1="-43.571" y1="426.001" x2="794" y2="321.773" gradientUnits="userSpaceOnUse">
<stop stop-color="#1743BF"/>
<stop offset="1" stop-color="#0093E6"/>
</linearGradient>
</defs>
</svg>
