<svg preserveAspectRatio="none" width="100%" height="100%" overflow="visible" style="display: block;" viewBox="0 0 181 239" fill="none" xmlns="http://www.w3.org/2000/svg">
<g id="Group 7" style="mix-blend-mode:hard-light">
<ellipse id="Ellipse 9" cx="41.7525" cy="58.1591" rx="1.89786" ry="2.90793" fill="var(--fill-0, #FCE306)" fill-opacity="0.7"/>
<ellipse id="Ellipse 10" cx="49.3441" cy="23.2635" rx="1.89786" ry="2.90793" fill="var(--fill-0, #FCE306)" fill-opacity="0.7"/>
<ellipse id="Ellipse 11" cx="81.6076" cy="14.5391" rx="1.89786" ry="2.90793" fill="var(--fill-0, #FCE306)" fill-opacity="0.7"/>
<ellipse id="Ellipse 12" cx="106.279" cy="8.72351" rx="1.89786" ry="2.90793" fill="var(--fill-0, #FCE306)" fill-opacity="0.7"/>
<ellipse id="Ellipse 13" cx="104.382" cy="34.8968" rx="1.89786" ry="2.90793" fill="var(--fill-0, #FCE306)" fill-opacity="0.7"/>
<ellipse id="Ellipse 14" cx="98.6882" cy="75.608" rx="1.89786" ry="2.90793" fill="var(--fill-0, #FCE306)" fill-opacity="0.7"/>
<ellipse id="Ellipse 15" cx="66.4247" cy="84.3302" rx="1.89786" ry="2.90793" fill="var(--fill-0, #FCE306)" fill-opacity="0.7"/>
<ellipse id="Ellipse 16" cx="51.2412" cy="125.041" rx="1.89786" ry="2.90793" fill="var(--fill-0, #FCE306)" fill-opacity="0.7"/>
<ellipse id="Ellipse 17" cx="5.69317" cy="130.859" rx="1.89786" ry="2.90793" fill="var(--fill-0, #FCE306)" fill-opacity="0.7"/>
<ellipse id="Ellipse 18" cx="36.0589" cy="90.1458" rx="1.89786" ry="2.90793" fill="var(--fill-0, #FCE306)" fill-opacity="0.7"/>
<ellipse id="Ellipse 19" cx="72.1178" cy="55.2502" rx="1.89786" ry="2.90793" fill="var(--fill-0, #FCE306)" fill-opacity="0.7"/>
<ellipse id="Ellipse 20" cx="132.849" cy="29.0791" rx="1.89786" ry="2.90793" fill="var(--fill-0, #FCE306)" fill-opacity="0.7"/>
<ellipse id="Ellipse 21" cx="125.259" cy="11.6345" rx="1.89786" ry="2.90793" fill="var(--fill-0, #FCE306)" fill-opacity="0.7"/>
<ellipse id="Ellipse 22" cx="167.011" cy="40.7102" rx="1.89786" ry="2.90793" fill="var(--fill-0, #FCE306)" fill-opacity="0.7"/>
<ellipse id="Ellipse 23" cx="148.033" cy="69.7924" rx="1.89786" ry="2.90793" fill="var(--fill-0, #FCE306)" fill-opacity="0.7"/>
<ellipse id="Ellipse 24" cx="144.237" cy="95.9614" rx="1.89786" ry="2.90793" fill="var(--fill-0, #FCE306)" fill-opacity="0.7"/>
<ellipse id="Ellipse 25" cx="172.704" cy="98.8702" rx="1.89786" ry="2.90793" fill="var(--fill-0, #FCE306)" fill-opacity="0.7"/>
<ellipse id="Ellipse 26" cx="178.398" cy="130.857" rx="1.89786" ry="2.90793" fill="var(--fill-0, #FCE306)" fill-opacity="0.7"/>
<ellipse id="Ellipse 27" cx="163.215" cy="136.675" rx="1.89786" ry="2.90793" fill="var(--fill-0, #FCE306)" fill-opacity="0.7"/>
<ellipse id="Ellipse 28" cx="149.931" cy="122.135" rx="1.89786" ry="2.90793" fill="var(--fill-0, #FCE306)" fill-opacity="0.7"/>
<ellipse id="Ellipse 29" cx="129.054" cy="122.135" rx="1.89786" ry="2.90793" fill="var(--fill-0, #FCE306)" fill-opacity="0.7"/>
<ellipse id="Ellipse 30" cx="108.177" cy="101.777" rx="1.89786" ry="2.90793" fill="var(--fill-0, #FCE306)" fill-opacity="0.7"/>
<ellipse id="Ellipse 31" cx="74.0162" cy="148.306" rx="1.89786" ry="2.90793" fill="var(--fill-0, #FCE306)" fill-opacity="0.7"/>
<ellipse id="Ellipse 32" cx="49.344" cy="174.477" rx="1.89786" ry="2.90793" fill="var(--fill-0, #FCE306)" fill-opacity="0.7"/>
<ellipse id="Ellipse 33" cx="18.9781" cy="183.199" rx="1.89786" ry="2.90793" fill="var(--fill-0, #FCE306)" fill-opacity="0.7"/>
<ellipse id="Ellipse 34" cx="64.5267" cy="206.464" rx="1.89786" ry="2.90793" fill="var(--fill-0, #FCE306)" fill-opacity="0.7"/>
<ellipse id="Ellipse 35" cx="51.2418" cy="232.637" rx="1.89786" ry="2.90793" fill="var(--fill-0, #FCE306)" fill-opacity="0.7"/>
<ellipse id="Ellipse 36" cx="102.483" cy="226.817" rx="1.89786" ry="2.90793" fill="var(--fill-0, #FCE306)" fill-opacity="0.7"/>
<ellipse id="Ellipse 37" cx="134.747" cy="215.188" rx="1.89786" ry="2.90793" fill="var(--fill-0, #FCE306)" fill-opacity="0.7"/>
<ellipse id="Ellipse 38" cx="106.28" cy="197.739" rx="1.89786" ry="2.90793" fill="var(--fill-0, #FCE306)" fill-opacity="0.7"/>
<ellipse id="Ellipse 39" cx="77.8119" cy="180.293" rx="1.89786" ry="2.90793" fill="var(--fill-0, #FCE306)" fill-opacity="0.7"/>
<ellipse id="Ellipse 40" cx="121.463" cy="162.846" rx="1.89786" ry="2.90793" fill="var(--fill-0, #FCE306)" fill-opacity="0.7"/>
<ellipse id="Ellipse 41" cx="149.931" cy="177.386" rx="1.89786" ry="2.90793" fill="var(--fill-0, #FCE306)" fill-opacity="0.7"/>
<ellipse id="Ellipse 42" cx="176.501" cy="168.661" rx="1.89786" ry="2.90793" fill="var(--fill-0, #FCE306)" fill-opacity="0.7"/>
<ellipse id="Ellipse 43" cx="26.5695" cy="151.213" rx="1.89786" ry="2.90793" fill="var(--fill-0, #FCE306)" fill-opacity="0.7"/>
<ellipse id="Ellipse 44" cx="20.8762" cy="101.779" rx="1.89786" ry="2.90793" fill="var(--fill-0, #FCE306)" fill-opacity="0.7"/>
<ellipse id="Ellipse 45" cx="17.0804" cy="78.5168" rx="1.89786" ry="2.90793" fill="var(--fill-0, #FCE306)" fill-opacity="0.7"/>
<ellipse id="Ellipse 46" cx="129.054" cy="55.2524" rx="1.89786" ry="2.90793" fill="var(--fill-0, #FCE306)" fill-opacity="0.7"/>
<ellipse id="Ellipse 47" cx="100.586" cy="159.937" rx="1.89786" ry="2.90793" fill="var(--fill-0, #FCE306)" fill-opacity="0.7"/>
<ellipse id="Ellipse 48" cx="89.1988" cy="113.41" rx="1.89786" ry="2.90793" fill="var(--fill-0, #FCE306)" fill-opacity="0.7"/>
<ellipse id="Ellipse 49" cx="35.1098" cy="213.734" rx="0.94893" ry="1.45397" fill="var(--fill-0, #FCE306)" fill-opacity="0.7"/>
<ellipse id="Ellipse 50" cx="31.3141" cy="190.47" rx="0.94893" ry="1.45397" fill="var(--fill-0, #FCE306)" fill-opacity="0.7"/>
<ellipse id="Ellipse 51" cx="38.9053" cy="167.207" rx="0.94893" ry="1.45397" fill="var(--fill-0, #FCE306)" fill-opacity="0.7"/>
<ellipse id="Ellipse 52" cx="57.8841" cy="141.034" rx="0.94893" ry="1.45397" fill="var(--fill-0, #FCE306)" fill-opacity="0.7"/>
<ellipse id="Ellipse 53" cx="76.8624" cy="114.863" rx="0.94893" ry="1.45397" fill="var(--fill-0, #FCE306)" fill-opacity="0.7"/>
<ellipse id="Ellipse 54" cx="82.5566" cy="68.3384" rx="0.94893" ry="1.45397" fill="var(--fill-0, #FCE306)" fill-opacity="0.7"/>
<ellipse id="Ellipse 55" cx="126.207" cy="97.4163" rx="0.94893" ry="1.45397" fill="var(--fill-0, #FCE306)" fill-opacity="0.7"/>
<ellipse id="Ellipse 56" cx="143.288" cy="45.0718" rx="0.94893" ry="1.45397" fill="var(--fill-0, #FCE306)" fill-opacity="0.7"/>
<ellipse id="Ellipse 57" cx="116.717" cy="27.6251" rx="0.94893" ry="1.45397" fill="var(--fill-0, #FCE306)" fill-opacity="0.7"/>
<ellipse id="Ellipse 58" cx="90.1481" cy="10.1784" rx="0.94893" ry="1.45397" fill="var(--fill-0, #FCE306)" fill-opacity="0.7"/>
<ellipse id="Ellipse 59" cx="63.5778" cy="30.534" rx="0.94893" ry="1.45397" fill="var(--fill-0, #FCE306)" fill-opacity="0.7"/>
<ellipse id="Ellipse 60" cx="37.0074" cy="50.8896" rx="0.94893" ry="1.45397" fill="var(--fill-0, #FCE306)" fill-opacity="0.7"/>
<ellipse id="Ellipse 61" cx="48.3945" cy="91.5986" rx="0.94893" ry="1.45397" fill="var(--fill-0, #FCE306)" fill-opacity="0.7"/>
<ellipse id="Ellipse 62" cx="59.7819" cy="132.312" rx="0.94893" ry="1.45397" fill="var(--fill-0, #FCE306)" fill-opacity="0.7"/>
<ellipse id="Ellipse 63" cx="80.6586" cy="164.299" rx="0.94893" ry="1.45397" fill="var(--fill-0, #FCE306)" fill-opacity="0.7"/>
<ellipse id="Ellipse 64" cx="101.535" cy="196.285" rx="0.94893" ry="1.45397" fill="var(--fill-0, #FCE306)" fill-opacity="0.7"/>
<ellipse id="Ellipse 65" cx="126.207" cy="210.825" rx="0.94893" ry="1.45397" fill="var(--fill-0, #FCE306)" fill-opacity="0.7"/>
<ellipse id="Ellipse 66" cx="141.39" cy="193.379" rx="0.94893" ry="1.45397" fill="var(--fill-0, #FCE306)" fill-opacity="0.7"/>
<ellipse id="Ellipse 67" cx="160.369" cy="170.116" rx="0.94893" ry="1.45397" fill="var(--fill-0, #FCE306)" fill-opacity="0.7"/>
<ellipse id="Ellipse 69" cx="116.718" cy="143.943" rx="0.94893" ry="1.45397" fill="var(--fill-0, #FCE306)" fill-opacity="0.7"/>
<ellipse id="Ellipse 70" cx="73.0671" cy="117.772" rx="0.94893" ry="1.45397" fill="var(--fill-0, #FCE306)" fill-opacity="0.7"/>
<ellipse id="Ellipse 71" cx="86.3516" cy="94.5074" rx="0.94893" ry="1.45397" fill="var(--fill-0, #FCE306)" fill-opacity="0.7"/>
<ellipse id="Ellipse 72" cx="101.535" cy="62.5207" rx="0.94893" ry="1.45397" fill="var(--fill-0, #FCE306)" fill-opacity="0.7"/>
<ellipse id="Ellipse 73" cx="128.105" cy="79.9696" rx="0.94893" ry="1.45397" fill="var(--fill-0, #FCE306)" fill-opacity="0.7"/>
<ellipse id="Ellipse 98" cx="139.492" cy="59.6118" rx="0.94893" ry="1.45397" fill="var(--fill-0, #FCE306)" fill-opacity="0.7"/>
<ellipse id="Ellipse 99" cx="148.981" cy="27.6251" rx="0.94893" ry="1.45397" fill="var(--fill-0, #FCE306)" fill-opacity="0.7"/>
<ellipse id="Ellipse 100" cx="73.067" cy="94.5074" rx="0.94893" ry="1.45397" fill="var(--fill-0, #FCE306)" fill-opacity="0.7"/>
<ellipse id="Ellipse 101" cx="86.352" cy="205.01" rx="0.94893" ry="1.45397" fill="var(--fill-0, #FCE306)" fill-opacity="0.7"/>
<ellipse id="Ellipse 102" cx="76.8624" cy="236.996" rx="0.94893" ry="1.45397" fill="var(--fill-0, #FCE306)" fill-opacity="0.7"/>
<ellipse id="Ellipse 103" cx="124.309" cy="190.47" rx="0.94893" ry="1.45397" fill="var(--fill-0, #FCE306)" fill-opacity="0.7"/>
<ellipse id="Ellipse 104" cx="169.858" cy="155.576" rx="0.94893" ry="1.45397" fill="var(--fill-0, #FCE306)" fill-opacity="0.7"/>
<ellipse id="Ellipse 105" cx="141.39" cy="155.576" rx="0.94893" ry="1.45397" fill="var(--fill-0, #FCE306)" fill-opacity="0.7"/>
<ellipse id="Ellipse 106" cx="90.1477" cy="178.836" rx="0.94893" ry="1.45397" fill="var(--fill-0, #FCE306)" fill-opacity="0.7"/>
<ellipse id="Ellipse 108" cx="90.1477" cy="178.836" rx="0.94893" ry="1.45397" fill="var(--fill-0, #FCE306)" fill-opacity="0.7"/>
<ellipse id="Ellipse 107" cx="35.1097" cy="225.365" rx="0.94893" ry="1.45397" fill="var(--fill-0, #FCE306)" fill-opacity="0.7"/>
<ellipse id="Ellipse 74" cx="145.186" cy="82.8763" rx="0.94893" ry="1.45397" fill="var(--fill-0, #FFC804)" fill-opacity="0.8"/>
<ellipse id="Ellipse 75" cx="154.675" cy="50.8896" rx="0.94893" ry="1.45397" fill="var(--fill-0, #FFC804)" fill-opacity="0.8"/>
<ellipse id="Ellipse 76" cx="160.368" cy="21.8095" rx="0.94893" ry="1.45397" fill="var(--fill-0, #FFC804)" fill-opacity="0.8"/>
<ellipse id="Ellipse 77" cx="162.266" cy="7.27169" rx="0.94893" ry="1.45397" fill="var(--fill-0, #FFC804)" fill-opacity="0.8"/>
<ellipse id="Ellipse 78" cx="141.39" cy="7.27169" rx="0.94893" ry="1.45397" fill="var(--fill-0, #FFC804)" fill-opacity="0.8"/>
<ellipse id="Ellipse 79" cx="116.718" cy="1.45612" rx="0.94893" ry="1.45397" fill="var(--fill-0, #FFC804)" fill-opacity="0.8"/>
<ellipse id="Ellipse 80" cx="71.1692" cy="1.45397" rx="0.94893" ry="1.45397" fill="var(--fill-0, #FFC804)" fill-opacity="0.8"/>
<ellipse id="Ellipse 81" cx="33.2123" cy="18.9028" rx="0.94893" ry="1.45397" fill="var(--fill-0, #FFC804)" fill-opacity="0.8"/>
<ellipse id="Ellipse 82" cx="6.64221" cy="50.8896" rx="0.94893" ry="1.45397" fill="var(--fill-0, #FFC804)" fill-opacity="0.8"/>
<ellipse id="Ellipse 83" cx="0.948933" cy="100.325" rx="0.94893" ry="1.45397" fill="var(--fill-0, #FFC804)" fill-opacity="0.8"/>
<ellipse id="Ellipse 84" cx="18.0291" cy="161.39" rx="0.94893" ry="1.45397" fill="var(--fill-0, #FFC804)" fill-opacity="0.8"/>
<ellipse id="Ellipse 85" cx="35.1094" cy="234.088" rx="0.94893" ry="1.45397" fill="var(--fill-0, #FFC804)" fill-opacity="0.8"/>
<ellipse id="Ellipse 86" cx="46.4968" cy="210.825" rx="0.94893" ry="1.45397" fill="var(--fill-0, #FFC804)" fill-opacity="0.8"/>
<ellipse id="Ellipse 87" cx="57.8842" cy="187.563" rx="0.94893" ry="1.45397" fill="var(--fill-0, #FFC804)" fill-opacity="0.8"/>
<ellipse id="Ellipse 88" cx="54.0886" cy="149.759" rx="0.94893" ry="1.45397" fill="var(--fill-0, #FFC804)" fill-opacity="0.8"/>
<ellipse id="Ellipse 89" cx="37.0079" cy="117.772" rx="0.94893" ry="1.45397" fill="var(--fill-0, #FFC804)" fill-opacity="0.8"/>
<ellipse id="Ellipse 90" cx="105.331" cy="135.221" rx="0.94893" ry="1.45397" fill="var(--fill-0, #FFC804)" fill-opacity="0.8"/>
<ellipse id="Ellipse 91" cx="141.39" cy="111.956" rx="0.94893" ry="1.45397" fill="var(--fill-0, #FFC804)" fill-opacity="0.8"/>
<ellipse id="Ellipse 92" cx="118.616" cy="74.1518" rx="0.94893" ry="1.45397" fill="var(--fill-0, #FFC804)" fill-opacity="0.8"/>
<ellipse id="Ellipse 93" cx="90.1475" cy="53.7963" rx="0.94893" ry="1.45397" fill="var(--fill-0, #FFC804)" fill-opacity="0.8"/>
<ellipse id="Ellipse 94" cx="55.9859" cy="53.7963" rx="0.94893" ry="1.45397" fill="var(--fill-0, #FFC804)" fill-opacity="0.8"/>
<ellipse id="Ellipse 95" cx="57.8841" cy="103.232" rx="0.94893" ry="1.45397" fill="var(--fill-0, #FFC804)" fill-opacity="0.8"/>
<ellipse id="Ellipse 96" cx="97.7386" cy="117.77" rx="0.94893" ry="1.45397" fill="var(--fill-0, #FFC804)" fill-opacity="0.8"/>
<ellipse id="Ellipse 97" cx="139.492" cy="123.587" rx="0.94893" ry="1.45397" fill="var(--fill-0, #FFC804)" fill-opacity="0.8"/>
<ellipse id="Ellipse 68" cx="143.288" cy="132.312" rx="0.94893" ry="1.45397" fill="var(--fill-0, #FFC804)" fill-opacity="0.8"/>
</g>
</svg>
