<svg preserveAspectRatio="none" width="100%" height="100%" overflow="visible" style="display: block;" viewBox="0 0 39 39" fill="none" xmlns="http://www.w3.org/2000/svg">
<g id="chevron-grabber-vertical">
<path id="Vector" fill-rule="evenodd" clip-rule="evenodd" d="M19.6263 11.3002C19.4688 11.1428 19.2138 11.1428 19.0564 11.3002L14.0337 16.3228C13.4043 16.9523 12.3837 16.9523 11.7543 16.3228C11.1248 15.6934 11.1248 14.6728 11.7543 14.0434L16.7769 9.02072C18.1932 7.60443 20.4894 7.60443 21.9058 9.02072L26.9284 14.0434C27.5578 14.6728 27.5578 15.6934 26.9284 16.3228C26.299 16.9523 25.2784 16.9523 24.6489 16.3228L19.6263 11.3002ZM11.7543 23.7143C12.3837 23.0849 13.4043 23.0849 14.0337 23.7143L19.0564 28.7371C19.2138 28.8944 19.4688 28.8944 19.6263 28.7371L24.6489 23.7143C25.2784 23.0849 26.299 23.0849 26.9284 23.7143C27.5578 24.3439 27.5578 25.3643 26.9284 25.9939L21.9058 31.0165C20.4894 32.4329 18.1932 32.4329 16.7769 31.0165L11.7543 25.9939C11.1248 25.3643 11.1248 24.3439 11.7543 23.7143Z" fill="var(--fill-0, black)" fill-opacity="0.19"/>
</g>
</svg>
