<svg preserveAspectRatio="none" width="100%" height="100%" overflow="visible" style="display: block;" viewBox="0 0 43 43" fill="none" xmlns="http://www.w3.org/2000/svg">
<g id="filter-1">
<path id="Vector" d="M30.3975 7.08055H12.0886C9.32346 7.08055 7.08188 9.32213 7.08188 12.0873C7.08188 13.4151 7.60936 14.6886 8.54831 15.6276L16.1473 23.2265C17.1432 24.2224 17.7027 25.5732 17.7027 26.9815V35.5037C17.7027 36.7396 18.9372 37.5951 20.0944 37.1611L23.6347 35.8335C24.3255 35.5745 24.7833 34.9139 24.7833 34.1761V26.9815C24.7833 25.5732 25.3428 24.2224 26.3387 23.2265L33.9378 15.6276C34.8766 14.6886 35.4042 13.4151 35.4042 12.0873C35.4042 9.32213 33.1626 7.08055 30.3975 7.08055Z" stroke="var(--stroke-0, black)" stroke-opacity="0.4" stroke-width="3.61778" stroke-linejoin="round"/>
</g>
</svg>
