<svg preserveAspectRatio="none" width="100%" height="100%" overflow="visible" style="display: block;" viewBox="0 0 181 239" fill="none" xmlns="http://www.w3.org/2000/svg">
<g id="Group 6" style="mix-blend-mode:color-dodge">
<ellipse id="Ellipse 9" cx="41.7534" cy="58.1569" rx="1.89786" ry="2.90793" fill="var(--fill-0, #FCE306)" fill-opacity="0.7"/>
<ellipse id="Ellipse 10" cx="49.3443" cy="23.2635" rx="1.89786" ry="2.90793" fill="var(--fill-0, #FCE306)" fill-opacity="0.7"/>
<ellipse id="Ellipse 11" cx="81.6078" cy="14.5391" rx="1.89786" ry="2.90793" fill="var(--fill-0, #FCE306)" fill-opacity="0.7"/>
<ellipse id="Ellipse 12" cx="106.28" cy="8.72351" rx="1.89786" ry="2.90793" fill="var(--fill-0, #FCE306)" fill-opacity="0.7"/>
<ellipse id="Ellipse 13" cx="104.382" cy="34.8968" rx="1.89786" ry="2.90793" fill="var(--fill-0, #FCE306)" fill-opacity="0.7"/>
<ellipse id="Ellipse 14" cx="98.6882" cy="75.6058" rx="1.89786" ry="2.90793" fill="var(--fill-0, #FCE306)" fill-opacity="0.7"/>
<ellipse id="Ellipse 15" cx="66.4252" cy="84.3302" rx="1.89786" ry="2.90793" fill="var(--fill-0, #FCE306)" fill-opacity="0.7"/>
<ellipse id="Ellipse 16" cx="51.2422" cy="125.041" rx="1.89786" ry="2.90793" fill="var(--fill-0, #FCE306)" fill-opacity="0.7"/>
<ellipse id="Ellipse 17" cx="5.69393" cy="130.857" rx="1.89786" ry="2.90793" fill="var(--fill-0, #FCE306)" fill-opacity="0.7"/>
<ellipse id="Ellipse 18" cx="36.0596" cy="90.1458" rx="1.89786" ry="2.90793" fill="var(--fill-0, #FCE306)" fill-opacity="0.7"/>
<ellipse id="Ellipse 19" cx="72.1184" cy="55.2524" rx="1.89786" ry="2.90793" fill="var(--fill-0, #FCE306)" fill-opacity="0.7"/>
<ellipse id="Ellipse 20" cx="132.85" cy="29.0791" rx="1.89786" ry="2.90793" fill="var(--fill-0, #FCE306)" fill-opacity="0.7"/>
<ellipse id="Ellipse 21" cx="125.259" cy="11.6324" rx="1.89786" ry="2.90793" fill="var(--fill-0, #FCE306)" fill-opacity="0.7"/>
<ellipse id="Ellipse 22" cx="167.012" cy="40.7102" rx="1.89786" ry="2.90793" fill="var(--fill-0, #FCE306)" fill-opacity="0.7"/>
<ellipse id="Ellipse 23" cx="148.033" cy="69.7902" rx="1.89786" ry="2.90793" fill="var(--fill-0, #FCE306)" fill-opacity="0.7"/>
<ellipse id="Ellipse 24" cx="144.237" cy="95.9614" rx="1.89786" ry="2.90793" fill="var(--fill-0, #FCE306)" fill-opacity="0.7"/>
<ellipse id="Ellipse 25" cx="172.706" cy="98.8703" rx="1.89786" ry="2.90793" fill="var(--fill-0, #FCE306)" fill-opacity="0.7"/>
<ellipse id="Ellipse 26" cx="178.399" cy="130.857" rx="1.89786" ry="2.90793" fill="var(--fill-0, #FCE306)" fill-opacity="0.7"/>
<ellipse id="Ellipse 27" cx="163.216" cy="136.673" rx="1.89786" ry="2.90793" fill="var(--fill-0, #FCE306)" fill-opacity="0.7"/>
<ellipse id="Ellipse 28" cx="149.931" cy="122.133" rx="1.89786" ry="2.90793" fill="var(--fill-0, #FCE306)" fill-opacity="0.7"/>
<ellipse id="Ellipse 29" cx="129.055" cy="122.133" rx="1.89786" ry="2.90793" fill="var(--fill-0, #FCE306)" fill-opacity="0.7"/>
<ellipse id="Ellipse 30" cx="108.178" cy="101.777" rx="1.89786" ry="2.90793" fill="var(--fill-0, #FCE306)" fill-opacity="0.7"/>
<ellipse id="Ellipse 31" cx="74.0163" cy="148.306" rx="1.89786" ry="2.90793" fill="var(--fill-0, #FCE306)" fill-opacity="0.7"/>
<ellipse id="Ellipse 32" cx="49.3441" cy="174.477" rx="1.89786" ry="2.90793" fill="var(--fill-0, #FCE306)" fill-opacity="0.7"/>
<ellipse id="Ellipse 33" cx="18.9782" cy="183.201" rx="1.89786" ry="2.90793" fill="var(--fill-0, #FCE306)" fill-opacity="0.7"/>
<ellipse id="Ellipse 34" cx="64.5273" cy="206.464" rx="1.89786" ry="2.90793" fill="var(--fill-0, #FCE306)" fill-opacity="0.7"/>
<ellipse id="Ellipse 35" cx="51.2417" cy="232.635" rx="1.89786" ry="2.90793" fill="var(--fill-0, #FCE306)" fill-opacity="0.7"/>
<ellipse id="Ellipse 36" cx="102.485" cy="226.819" rx="1.89786" ry="2.90793" fill="var(--fill-0, #FCE306)" fill-opacity="0.7"/>
<ellipse id="Ellipse 37" cx="134.748" cy="215.188" rx="1.89786" ry="2.90793" fill="var(--fill-0, #FCE306)" fill-opacity="0.7"/>
<ellipse id="Ellipse 38" cx="106.28" cy="197.741" rx="1.89786" ry="2.90793" fill="var(--fill-0, #FCE306)" fill-opacity="0.7"/>
<ellipse id="Ellipse 39" cx="77.8119" cy="180.293" rx="1.89786" ry="2.90793" fill="var(--fill-0, #FCE306)" fill-opacity="0.7"/>
<ellipse id="Ellipse 40" cx="121.463" cy="162.844" rx="1.89786" ry="2.90793" fill="var(--fill-0, #FCE306)" fill-opacity="0.7"/>
<ellipse id="Ellipse 41" cx="149.931" cy="177.384" rx="1.89786" ry="2.90793" fill="var(--fill-0, #FCE306)" fill-opacity="0.7"/>
<ellipse id="Ellipse 42" cx="176.5" cy="168.661" rx="1.89786" ry="2.90793" fill="var(--fill-0, #FCE306)" fill-opacity="0.7"/>
<ellipse id="Ellipse 43" cx="26.5703" cy="151.213" rx="1.89786" ry="2.90793" fill="var(--fill-0, #FCE306)" fill-opacity="0.7"/>
<ellipse id="Ellipse 44" cx="20.8764" cy="101.777" rx="1.89786" ry="2.90793" fill="var(--fill-0, #FCE306)" fill-opacity="0.7"/>
<ellipse id="Ellipse 45" cx="17.0806" cy="78.5147" rx="1.89786" ry="2.90793" fill="var(--fill-0, #FCE306)" fill-opacity="0.7"/>
<ellipse id="Ellipse 46" cx="129.054" cy="55.2524" rx="1.89786" ry="2.90793" fill="var(--fill-0, #FCE306)" fill-opacity="0.7"/>
<ellipse id="Ellipse 47" cx="100.586" cy="159.937" rx="1.89786" ry="2.90793" fill="var(--fill-0, #FCE306)" fill-opacity="0.7"/>
<ellipse id="Ellipse 48" cx="89.1993" cy="113.41" rx="1.89786" ry="2.90793" fill="var(--fill-0, #FCE306)" fill-opacity="0.7"/>
<ellipse id="Ellipse 49" cx="35.1101" cy="213.734" rx="0.94893" ry="1.45397" fill="var(--fill-0, #FCE306)" fill-opacity="0.7"/>
<ellipse id="Ellipse 50" cx="31.3146" cy="190.47" rx="0.94893" ry="1.45397" fill="var(--fill-0, #FCE306)" fill-opacity="0.7"/>
<ellipse id="Ellipse 51" cx="38.9064" cy="167.205" rx="0.94893" ry="1.45397" fill="var(--fill-0, #FCE306)" fill-opacity="0.7"/>
<ellipse id="Ellipse 52" cx="57.8843" cy="141.036" rx="0.94893" ry="1.45397" fill="var(--fill-0, #FCE306)" fill-opacity="0.7"/>
<ellipse id="Ellipse 53" cx="76.8635" cy="114.863" rx="0.94893" ry="1.45397" fill="var(--fill-0, #FCE306)" fill-opacity="0.7"/>
<ellipse id="Ellipse 54" cx="82.5574" cy="68.3341" rx="0.94893" ry="1.45397" fill="var(--fill-0, #FCE306)" fill-opacity="0.7"/>
<ellipse id="Ellipse 55" cx="126.207" cy="97.4163" rx="0.94893" ry="1.45397" fill="var(--fill-0, #FCE306)" fill-opacity="0.7"/>
<ellipse id="Ellipse 56" cx="143.288" cy="45.0718" rx="0.94893" ry="1.45397" fill="var(--fill-0, #FCE306)" fill-opacity="0.7"/>
<ellipse id="Ellipse 57" cx="116.718" cy="27.6251" rx="0.94893" ry="1.45397" fill="var(--fill-0, #FCE306)" fill-opacity="0.7"/>
<ellipse id="Ellipse 58" cx="90.1481" cy="10.1784" rx="0.94893" ry="1.45397" fill="var(--fill-0, #FCE306)" fill-opacity="0.7"/>
<ellipse id="Ellipse 59" cx="63.5783" cy="30.5318" rx="0.94893" ry="1.45397" fill="var(--fill-0, #FCE306)" fill-opacity="0.7"/>
<ellipse id="Ellipse 60" cx="37.0085" cy="50.8874" rx="0.94893" ry="1.45397" fill="var(--fill-0, #FCE306)" fill-opacity="0.7"/>
<ellipse id="Ellipse 61" cx="48.3954" cy="91.6007" rx="0.94893" ry="1.45397" fill="var(--fill-0, #FCE306)" fill-opacity="0.7"/>
<ellipse id="Ellipse 62" cx="59.7822" cy="132.312" rx="0.94893" ry="1.45397" fill="var(--fill-0, #FCE306)" fill-opacity="0.7"/>
<ellipse id="Ellipse 63" cx="80.659" cy="164.299" rx="0.94893" ry="1.45397" fill="var(--fill-0, #FCE306)" fill-opacity="0.7"/>
<ellipse id="Ellipse 64" cx="101.536" cy="196.287" rx="0.94893" ry="1.45397" fill="var(--fill-0, #FCE306)" fill-opacity="0.7"/>
<ellipse id="Ellipse 65" cx="126.208" cy="210.823" rx="0.94893" ry="1.45397" fill="var(--fill-0, #FCE306)" fill-opacity="0.7"/>
<ellipse id="Ellipse 66" cx="141.391" cy="193.376" rx="0.94893" ry="1.45397" fill="var(--fill-0, #FCE306)" fill-opacity="0.7"/>
<ellipse id="Ellipse 67" cx="160.369" cy="170.114" rx="0.94893" ry="1.45397" fill="var(--fill-0, #FCE306)" fill-opacity="0.7"/>
<ellipse id="Ellipse 69" cx="116.718" cy="143.943" rx="0.94893" ry="1.45397" fill="var(--fill-0, #FCE306)" fill-opacity="0.7"/>
<ellipse id="Ellipse 70" cx="73.0677" cy="117.772" rx="0.94893" ry="1.45397" fill="var(--fill-0, #FCE306)" fill-opacity="0.7"/>
<ellipse id="Ellipse 71" cx="86.3527" cy="94.5074" rx="0.94893" ry="1.45397" fill="var(--fill-0, #FCE306)" fill-opacity="0.7"/>
<ellipse id="Ellipse 72" cx="101.535" cy="62.5207" rx="0.94893" ry="1.45397" fill="var(--fill-0, #FCE306)" fill-opacity="0.7"/>
<ellipse id="Ellipse 73" cx="128.105" cy="79.9674" rx="0.94893" ry="1.45397" fill="var(--fill-0, #FCE306)" fill-opacity="0.7"/>
<ellipse id="Ellipse 98" cx="139.493" cy="59.6118" rx="0.94893" ry="1.45397" fill="var(--fill-0, #FCE306)" fill-opacity="0.7"/>
<ellipse id="Ellipse 99" cx="148.982" cy="27.6251" rx="0.94893" ry="1.45397" fill="var(--fill-0, #FCE306)" fill-opacity="0.7"/>
<ellipse id="Ellipse 100" cx="73.0677" cy="94.5096" rx="0.94893" ry="1.45397" fill="var(--fill-0, #FCE306)" fill-opacity="0.7"/>
<ellipse id="Ellipse 101" cx="86.3523" cy="205.01" rx="0.94893" ry="1.45397" fill="var(--fill-0, #FCE306)" fill-opacity="0.7"/>
<ellipse id="Ellipse 102" cx="76.8633" cy="236.996" rx="0.94893" ry="1.45397" fill="var(--fill-0, #FCE306)" fill-opacity="0.7"/>
<ellipse id="Ellipse 103" cx="124.31" cy="190.47" rx="0.94893" ry="1.45397" fill="var(--fill-0, #FCE306)" fill-opacity="0.7"/>
<ellipse id="Ellipse 104" cx="169.858" cy="155.574" rx="0.94893" ry="1.45397" fill="var(--fill-0, #FCE306)" fill-opacity="0.7"/>
<ellipse id="Ellipse 105" cx="141.391" cy="155.574" rx="0.94893" ry="1.45397" fill="var(--fill-0, #FCE306)" fill-opacity="0.7"/>
<ellipse id="Ellipse 106" cx="90.1486" cy="178.836" rx="0.94893" ry="1.45397" fill="var(--fill-0, #FCE306)" fill-opacity="0.7"/>
<ellipse id="Ellipse 108" cx="90.1486" cy="178.836" rx="0.94893" ry="1.45397" fill="var(--fill-0, #FCE306)" fill-opacity="0.7"/>
<ellipse id="Ellipse 107" cx="35.111" cy="225.363" rx="0.94893" ry="1.45397" fill="var(--fill-0, #FCE306)" fill-opacity="0.7"/>
<ellipse id="Ellipse 74" cx="145.186" cy="82.8741" rx="0.94893" ry="1.45397" fill="var(--fill-0, #FFC804)" fill-opacity="0.8"/>
<ellipse id="Ellipse 75" cx="154.676" cy="50.8874" rx="0.94893" ry="1.45397" fill="var(--fill-0, #FFC804)" fill-opacity="0.8"/>
<ellipse id="Ellipse 76" cx="160.369" cy="21.8095" rx="0.94893" ry="1.45397" fill="var(--fill-0, #FFC804)" fill-opacity="0.8"/>
<ellipse id="Ellipse 77" cx="162.267" cy="7.26954" rx="0.94893" ry="1.45397" fill="var(--fill-0, #FFC804)" fill-opacity="0.8"/>
<ellipse id="Ellipse 78" cx="141.391" cy="7.26954" rx="0.94893" ry="1.45397" fill="var(--fill-0, #FFC804)" fill-opacity="0.8"/>
<ellipse id="Ellipse 79" cx="116.718" cy="1.45397" rx="0.94893" ry="1.45397" fill="var(--fill-0, #FFC804)" fill-opacity="0.8"/>
<ellipse id="Ellipse 80" cx="71.1698" cy="1.45396" rx="0.94893" ry="1.45397" fill="var(--fill-0, #FFC804)" fill-opacity="0.8"/>
<ellipse id="Ellipse 81" cx="33.2123" cy="18.9007" rx="0.94893" ry="1.45397" fill="var(--fill-0, #FFC804)" fill-opacity="0.8"/>
<ellipse id="Ellipse 82" cx="6.64227" cy="50.8895" rx="0.94893" ry="1.45397" fill="var(--fill-0, #FFC804)" fill-opacity="0.8"/>
<ellipse id="Ellipse 83" cx="0.948941" cy="100.323" rx="0.94893" ry="1.45397" fill="var(--fill-0, #FFC804)" fill-opacity="0.8"/>
<ellipse id="Ellipse 84" cx="18.0299" cy="161.39" rx="0.94893" ry="1.45397" fill="var(--fill-0, #FFC804)" fill-opacity="0.8"/>
<ellipse id="Ellipse 85" cx="35.1106" cy="234.088" rx="0.94893" ry="1.45397" fill="var(--fill-0, #FFC804)" fill-opacity="0.8"/>
<ellipse id="Ellipse 86" cx="46.497" cy="210.825" rx="0.94893" ry="1.45397" fill="var(--fill-0, #FFC804)" fill-opacity="0.8"/>
<ellipse id="Ellipse 87" cx="57.8844" cy="187.563" rx="0.94893" ry="1.45397" fill="var(--fill-0, #FFC804)" fill-opacity="0.8"/>
<ellipse id="Ellipse 88" cx="54.0893" cy="149.759" rx="0.94893" ry="1.45397" fill="var(--fill-0, #FFC804)" fill-opacity="0.8"/>
<ellipse id="Ellipse 89" cx="37.0081" cy="117.772" rx="0.94893" ry="1.45397" fill="var(--fill-0, #FFC804)" fill-opacity="0.8"/>
<ellipse id="Ellipse 90" cx="105.331" cy="135.221" rx="0.94893" ry="1.45397" fill="var(--fill-0, #FFC804)" fill-opacity="0.8"/>
<ellipse id="Ellipse 91" cx="141.391" cy="111.956" rx="0.94893" ry="1.45397" fill="var(--fill-0, #FFC804)" fill-opacity="0.8"/>
<ellipse id="Ellipse 92" cx="118.616" cy="74.1518" rx="0.94893" ry="1.45397" fill="var(--fill-0, #FFC804)" fill-opacity="0.8"/>
<ellipse id="Ellipse 93" cx="90.1488" cy="53.7963" rx="0.94893" ry="1.45397" fill="var(--fill-0, #FFC804)" fill-opacity="0.8"/>
<ellipse id="Ellipse 94" cx="55.9872" cy="53.7963" rx="0.94893" ry="1.45397" fill="var(--fill-0, #FFC804)" fill-opacity="0.8"/>
<ellipse id="Ellipse 95" cx="57.8845" cy="103.232" rx="0.94893" ry="1.45397" fill="var(--fill-0, #FFC804)" fill-opacity="0.8"/>
<ellipse id="Ellipse 96" cx="97.7399" cy="117.772" rx="0.94893" ry="1.45397" fill="var(--fill-0, #FFC804)" fill-opacity="0.8"/>
<ellipse id="Ellipse 97" cx="139.493" cy="123.587" rx="0.94893" ry="1.45397" fill="var(--fill-0, #FFC804)" fill-opacity="0.8"/>
<ellipse id="Ellipse 68" cx="143.288" cy="132.31" rx="0.94893" ry="1.45397" fill="var(--fill-0, #FFC804)" fill-opacity="0.8"/>
</g>
</svg>
