<svg preserveAspectRatio="none" width="100%" height="100%" overflow="visible" style="display: block;" viewBox="0 0 51 51" fill="none" xmlns="http://www.w3.org/2000/svg">
<g id="Vector" filter="url(#filter0_d_11_544)">
<path d="M15.1562 2.9592C11.7422 0.547492 7 2.96101 7 7.11025V33.5698C7 37.719 11.7422 40.1325 15.1562 37.7208L33.8844 24.4913C36.7644 22.4567 36.7644 18.2236 33.8844 16.189L15.1562 2.9592Z" fill="var(--fill-0, white)"/>
<path d="M43.6764 3.90277C43.6764 2.96364 42.9066 2.20233 41.957 2.20233C41.0074 2.20233 40.2376 2.96364 40.2376 3.90277V36.7775C40.2376 37.7167 41.0074 38.4778 41.957 38.4778C42.9066 38.4778 43.6764 37.7167 43.6764 36.7775V3.90277Z" fill="var(--fill-0, white)"/>
</g>
<defs>
<filter id="filter0_d_11_544" x="0" y="1.863e-09" width="50.6764" height="50.68" filterUnits="userSpaceOnUse" color-interpolation-filters="sRGB">
<feFlood flood-opacity="0" result="BackgroundImageFix"/>
<feColorMatrix in="SourceAlpha" type="matrix" values="0 0 0 0 0 0 0 0 0 0 0 0 0 0 0 0 0 0 127 0" result="hardAlpha"/>
<feOffset dy="5"/>
<feGaussianBlur stdDeviation="3.5"/>
<feComposite in2="hardAlpha" operator="out"/>
<feColorMatrix type="matrix" values="0 0 0 0 0 0 0 0 0 0 0 0 0 0 0 0 0 0 0.07 0"/>
<feBlend mode="normal" in2="BackgroundImageFix" result="effect1_dropShadow_11_544"/>
<feBlend mode="normal" in="SourceGraphic" in2="effect1_dropShadow_11_544" result="shape"/>
</filter>
</defs>
</svg>
