<svg preserveAspectRatio="none" width="100%" height="100%" overflow="visible" style="display: block;" viewBox="0 0 52 52" fill="none" xmlns="http://www.w3.org/2000/svg">
<g id="cloud-upload">
<path id="Vector" d="M25.6356 41.1238V25.1015M25.6356 25.1015L30.9764 30.4423M25.6356 25.1015L20.2949 30.4423M32.0445 41.1238H38.7205C43.5874 41.1238 47.5327 37.1784 47.5327 32.3115C47.5327 27.4446 43.5874 23.4993 38.7205 23.4993C38.6273 23.4993 38.5346 23.5008 38.4423 23.5036C38.4498 23.325 38.4534 23.1455 38.4534 22.9652C38.4534 15.8861 32.7147 10.1474 25.6356 10.1474C20.0206 10.1474 15.2488 13.758 13.5153 18.7841C8.00063 19.4903 3.73857 24.2015 3.73857 29.9082C3.73857 36.1024 8.75996 41.1238 14.9541 41.1238H19.2267" stroke="var(--stroke-0, black)" stroke-opacity="0.6" stroke-width="3.20445" stroke-linecap="round" stroke-linejoin="round"/>
</g>
</svg>
