<svg preserveAspectRatio="none" width="100%" height="100%" overflow="visible" style="display: block;" viewBox="0 0 536 463" fill="none" xmlns="http://www.w3.org/2000/svg">
<g id="Group 6" style="mix-blend-mode:color-dodge">
<circle id="Ellipse 9" cx="124.126" cy="112.842" r="5.64211" fill="var(--fill-0, #FCE306)" fill-opacity="0.7"/>
<circle id="Ellipse 10" cx="146.695" cy="45.1368" r="5.64211" fill="var(--fill-0, #FCE306)" fill-opacity="0.7"/>
<circle id="Ellipse 11" cx="242.611" cy="28.2105" r="5.64211" fill="var(--fill-0, #FCE306)" fill-opacity="0.7"/>
<circle id="Ellipse 12" cx="315.958" cy="16.9263" r="5.64211" fill="var(--fill-0, #FCE306)" fill-opacity="0.7"/>
<circle id="Ellipse 13" cx="310.316" cy="67.7053" r="5.64211" fill="var(--fill-0, #FCE306)" fill-opacity="0.7"/>
<circle id="Ellipse 14" cx="293.389" cy="146.695" r="5.64211" fill="var(--fill-0, #FCE306)" fill-opacity="0.7"/>
<circle id="Ellipse 15" cx="197.474" cy="163.621" r="5.64211" fill="var(--fill-0, #FCE306)" fill-opacity="0.7"/>
<circle id="Ellipse 16" cx="152.337" cy="242.611" r="5.64211" fill="var(--fill-0, #FCE306)" fill-opacity="0.7"/>
<circle id="Ellipse 17" cx="16.9263" cy="253.895" r="5.64211" fill="var(--fill-0, #FCE306)" fill-opacity="0.7"/>
<circle id="Ellipse 18" cx="107.2" cy="174.905" r="5.64211" fill="var(--fill-0, #FCE306)" fill-opacity="0.7"/>
<circle id="Ellipse 19" cx="214.4" cy="107.2" r="5.64211" fill="var(--fill-0, #FCE306)" fill-opacity="0.7"/>
<circle id="Ellipse 20" cx="394.947" cy="56.4211" r="5.64211" fill="var(--fill-0, #FCE306)" fill-opacity="0.7"/>
<circle id="Ellipse 21" cx="372.379" cy="22.5684" r="5.64211" fill="var(--fill-0, #FCE306)" fill-opacity="0.7"/>
<circle id="Ellipse 22" cx="496.505" cy="78.9895" r="5.64211" fill="var(--fill-0, #FCE306)" fill-opacity="0.7"/>
<circle id="Ellipse 23" cx="440.084" cy="135.411" r="5.64211" fill="var(--fill-0, #FCE306)" fill-opacity="0.7"/>
<circle id="Ellipse 24" cx="428.8" cy="186.189" r="5.64211" fill="var(--fill-0, #FCE306)" fill-opacity="0.7"/>
<circle id="Ellipse 25" cx="513.432" cy="191.832" r="5.64211" fill="var(--fill-0, #FCE306)" fill-opacity="0.7"/>
<circle id="Ellipse 26" cx="530.358" cy="253.895" r="5.64211" fill="var(--fill-0, #FCE306)" fill-opacity="0.7"/>
<circle id="Ellipse 27" cx="485.221" cy="265.179" r="5.64211" fill="var(--fill-0, #FCE306)" fill-opacity="0.7"/>
<circle id="Ellipse 28" cx="445.726" cy="236.968" r="5.64211" fill="var(--fill-0, #FCE306)" fill-opacity="0.7"/>
<circle id="Ellipse 29" cx="383.663" cy="236.968" r="5.64211" fill="var(--fill-0, #FCE306)" fill-opacity="0.7"/>
<circle id="Ellipse 30" cx="321.6" cy="197.474" r="5.64211" fill="var(--fill-0, #FCE306)" fill-opacity="0.7"/>
<circle id="Ellipse 31" cx="220.042" cy="287.747" r="5.64211" fill="var(--fill-0, #FCE306)" fill-opacity="0.7"/>
<circle id="Ellipse 32" cx="146.695" cy="338.526" r="5.64211" fill="var(--fill-0, #FCE306)" fill-opacity="0.7"/>
<circle id="Ellipse 33" cx="56.4211" cy="355.453" r="5.64211" fill="var(--fill-0, #FCE306)" fill-opacity="0.7"/>
<circle id="Ellipse 34" cx="191.832" cy="400.589" r="5.64211" fill="var(--fill-0, #FCE306)" fill-opacity="0.7"/>
<circle id="Ellipse 35" cx="152.337" cy="451.368" r="5.64211" fill="var(--fill-0, #FCE306)" fill-opacity="0.7"/>
<circle id="Ellipse 36" cx="304.674" cy="440.084" r="5.64211" fill="var(--fill-0, #FCE306)" fill-opacity="0.7"/>
<circle id="Ellipse 37" cx="400.589" cy="417.516" r="5.64211" fill="var(--fill-0, #FCE306)" fill-opacity="0.7"/>
<circle id="Ellipse 38" cx="315.958" cy="383.663" r="5.64211" fill="var(--fill-0, #FCE306)" fill-opacity="0.7"/>
<circle id="Ellipse 39" cx="231.326" cy="349.811" r="5.64211" fill="var(--fill-0, #FCE306)" fill-opacity="0.7"/>
<circle id="Ellipse 40" cx="361.095" cy="315.958" r="5.64211" fill="var(--fill-0, #FCE306)" fill-opacity="0.7"/>
<circle id="Ellipse 41" cx="445.726" cy="344.168" r="5.64211" fill="var(--fill-0, #FCE306)" fill-opacity="0.7"/>
<circle id="Ellipse 42" cx="524.716" cy="327.242" r="5.64211" fill="var(--fill-0, #FCE306)" fill-opacity="0.7"/>
<circle id="Ellipse 43" cx="78.9895" cy="293.389" r="5.64211" fill="var(--fill-0, #FCE306)" fill-opacity="0.7"/>
<circle id="Ellipse 44" cx="62.0632" cy="197.474" r="5.64211" fill="var(--fill-0, #FCE306)" fill-opacity="0.7"/>
<circle id="Ellipse 45" cx="50.7789" cy="152.337" r="5.64211" fill="var(--fill-0, #FCE306)" fill-opacity="0.7"/>
<circle id="Ellipse 46" cx="383.663" cy="107.2" r="5.64211" fill="var(--fill-0, #FCE306)" fill-opacity="0.7"/>
<circle id="Ellipse 47" cx="299.032" cy="310.316" r="5.64211" fill="var(--fill-0, #FCE306)" fill-opacity="0.7"/>
<circle id="Ellipse 48" cx="265.179" cy="220.042" r="5.64211" fill="var(--fill-0, #FCE306)" fill-opacity="0.7"/>
<circle id="Ellipse 49" cx="104.379" cy="414.695" r="2.82105" fill="var(--fill-0, #FCE306)" fill-opacity="0.7"/>
<circle id="Ellipse 50" cx="93.0947" cy="369.558" r="2.82105" fill="var(--fill-0, #FCE306)" fill-opacity="0.7"/>
<circle id="Ellipse 51" cx="115.663" cy="324.421" r="2.82105" fill="var(--fill-0, #FCE306)" fill-opacity="0.7"/>
<circle id="Ellipse 52" cx="172.084" cy="273.642" r="2.82105" fill="var(--fill-0, #FCE306)" fill-opacity="0.7"/>
<circle id="Ellipse 53" cx="228.505" cy="222.863" r="2.82105" fill="var(--fill-0, #FCE306)" fill-opacity="0.7"/>
<circle id="Ellipse 54" cx="245.432" cy="132.589" r="2.82105" fill="var(--fill-0, #FCE306)" fill-opacity="0.7"/>
<circle id="Ellipse 55" cx="375.2" cy="189.011" r="2.82105" fill="var(--fill-0, #FCE306)" fill-opacity="0.7"/>
<circle id="Ellipse 56" cx="425.979" cy="87.4526" r="2.82105" fill="var(--fill-0, #FCE306)" fill-opacity="0.7"/>
<circle id="Ellipse 57" cx="346.989" cy="53.6" r="2.82105" fill="var(--fill-0, #FCE306)" fill-opacity="0.7"/>
<circle id="Ellipse 58" cx="268" cy="19.7474" r="2.82105" fill="var(--fill-0, #FCE306)" fill-opacity="0.7"/>
<circle id="Ellipse 59" cx="189.011" cy="59.2421" r="2.82105" fill="var(--fill-0, #FCE306)" fill-opacity="0.7"/>
<circle id="Ellipse 60" cx="110.021" cy="98.7368" r="2.82105" fill="var(--fill-0, #FCE306)" fill-opacity="0.7"/>
<circle id="Ellipse 61" cx="143.874" cy="177.726" r="2.82105" fill="var(--fill-0, #FCE306)" fill-opacity="0.7"/>
<circle id="Ellipse 62" cx="177.726" cy="256.716" r="2.82105" fill="var(--fill-0, #FCE306)" fill-opacity="0.7"/>
<circle id="Ellipse 63" cx="239.789" cy="318.779" r="2.82105" fill="var(--fill-0, #FCE306)" fill-opacity="0.7"/>
<circle id="Ellipse 64" cx="301.853" cy="380.842" r="2.82105" fill="var(--fill-0, #FCE306)" fill-opacity="0.7"/>
<circle id="Ellipse 65" cx="375.2" cy="409.053" r="2.82105" fill="var(--fill-0, #FCE306)" fill-opacity="0.7"/>
<circle id="Ellipse 66" cx="420.337" cy="375.2" r="2.82105" fill="var(--fill-0, #FCE306)" fill-opacity="0.7"/>
<circle id="Ellipse 67" cx="476.758" cy="330.063" r="2.82105" fill="var(--fill-0, #FCE306)" fill-opacity="0.7"/>
<circle id="Ellipse 69" cx="346.989" cy="279.284" r="2.82105" fill="var(--fill-0, #FCE306)" fill-opacity="0.7"/>
<circle id="Ellipse 70" cx="217.221" cy="228.505" r="2.82105" fill="var(--fill-0, #FCE306)" fill-opacity="0.7"/>
<circle id="Ellipse 71" cx="256.716" cy="183.368" r="2.82105" fill="var(--fill-0, #FCE306)" fill-opacity="0.7"/>
<circle id="Ellipse 72" cx="301.853" cy="121.305" r="2.82105" fill="var(--fill-0, #FCE306)" fill-opacity="0.7"/>
<circle id="Ellipse 73" cx="380.842" cy="155.158" r="2.82105" fill="var(--fill-0, #FCE306)" fill-opacity="0.7"/>
<circle id="Ellipse 98" cx="414.695" cy="115.663" r="2.82105" fill="var(--fill-0, #FCE306)" fill-opacity="0.7"/>
<circle id="Ellipse 99" cx="442.905" cy="53.6" r="2.82105" fill="var(--fill-0, #FCE306)" fill-opacity="0.7"/>
<circle id="Ellipse 100" cx="217.221" cy="183.368" r="2.82105" fill="var(--fill-0, #FCE306)" fill-opacity="0.7"/>
<circle id="Ellipse 101" cx="256.716" cy="397.768" r="2.82105" fill="var(--fill-0, #FCE306)" fill-opacity="0.7"/>
<circle id="Ellipse 102" cx="228.505" cy="459.832" r="2.82105" fill="var(--fill-0, #FCE306)" fill-opacity="0.7"/>
<circle id="Ellipse 103" cx="369.558" cy="369.558" r="2.82105" fill="var(--fill-0, #FCE306)" fill-opacity="0.7"/>
<circle id="Ellipse 104" cx="504.968" cy="301.853" r="2.82105" fill="var(--fill-0, #FCE306)" fill-opacity="0.7"/>
<circle id="Ellipse 105" cx="420.337" cy="301.853" r="2.82105" fill="var(--fill-0, #FCE306)" fill-opacity="0.7"/>
<circle id="Ellipse 106" cx="268" cy="346.989" r="2.82105" fill="var(--fill-0, #FCE306)" fill-opacity="0.7"/>
<circle id="Ellipse 108" cx="268" cy="346.989" r="2.82105" fill="var(--fill-0, #FCE306)" fill-opacity="0.7"/>
<circle id="Ellipse 107" cx="104.379" cy="437.263" r="2.82105" fill="var(--fill-0, #FCE306)" fill-opacity="0.7"/>
<circle id="Ellipse 74" cx="431.621" cy="160.8" r="2.82105" fill="var(--fill-0, #FFC804)" fill-opacity="0.8"/>
<circle id="Ellipse 75" cx="459.832" cy="98.7368" r="2.82105" fill="var(--fill-0, #FFC804)" fill-opacity="0.8"/>
<circle id="Ellipse 76" cx="476.758" cy="42.3158" r="2.82105" fill="var(--fill-0, #FFC804)" fill-opacity="0.8"/>
<circle id="Ellipse 77" cx="482.4" cy="14.1053" r="2.82105" fill="var(--fill-0, #FFC804)" fill-opacity="0.8"/>
<circle id="Ellipse 78" cx="420.337" cy="14.1053" r="2.82105" fill="var(--fill-0, #FFC804)" fill-opacity="0.8"/>
<circle id="Ellipse 79" cx="346.989" cy="2.82105" r="2.82105" fill="var(--fill-0, #FFC804)" fill-opacity="0.8"/>
<circle id="Ellipse 80" cx="211.579" cy="2.82105" r="2.82105" fill="var(--fill-0, #FFC804)" fill-opacity="0.8"/>
<circle id="Ellipse 81" cx="98.7368" cy="36.6737" r="2.82105" fill="var(--fill-0, #FFC804)" fill-opacity="0.8"/>
<circle id="Ellipse 82" cx="19.7474" cy="98.7368" r="2.82105" fill="var(--fill-0, #FFC804)" fill-opacity="0.8"/>
<circle id="Ellipse 83" cx="2.82105" cy="194.653" r="2.82105" fill="var(--fill-0, #FFC804)" fill-opacity="0.8"/>
<circle id="Ellipse 84" cx="53.6" cy="313.137" r="2.82105" fill="var(--fill-0, #FFC804)" fill-opacity="0.8"/>
<circle id="Ellipse 85" cx="104.379" cy="454.189" r="2.82105" fill="var(--fill-0, #FFC804)" fill-opacity="0.8"/>
<circle id="Ellipse 86" cx="138.232" cy="409.053" r="2.82105" fill="var(--fill-0, #FFC804)" fill-opacity="0.8"/>
<circle id="Ellipse 87" cx="172.084" cy="363.916" r="2.82105" fill="var(--fill-0, #FFC804)" fill-opacity="0.8"/>
<circle id="Ellipse 88" cx="160.8" cy="290.568" r="2.82105" fill="var(--fill-0, #FFC804)" fill-opacity="0.8"/>
<circle id="Ellipse 89" cx="110.021" cy="228.505" r="2.82105" fill="var(--fill-0, #FFC804)" fill-opacity="0.8"/>
<circle id="Ellipse 90" cx="313.137" cy="262.358" r="2.82105" fill="var(--fill-0, #FFC804)" fill-opacity="0.8"/>
<circle id="Ellipse 91" cx="420.337" cy="217.221" r="2.82105" fill="var(--fill-0, #FFC804)" fill-opacity="0.8"/>
<circle id="Ellipse 92" cx="352.632" cy="143.874" r="2.82105" fill="var(--fill-0, #FFC804)" fill-opacity="0.8"/>
<circle id="Ellipse 93" cx="268" cy="104.379" r="2.82105" fill="var(--fill-0, #FFC804)" fill-opacity="0.8"/>
<circle id="Ellipse 94" cx="166.442" cy="104.379" r="2.82105" fill="var(--fill-0, #FFC804)" fill-opacity="0.8"/>
<circle id="Ellipse 95" cx="172.084" cy="200.295" r="2.82105" fill="var(--fill-0, #FFC804)" fill-opacity="0.8"/>
<circle id="Ellipse 96" cx="290.568" cy="228.505" r="2.82105" fill="var(--fill-0, #FFC804)" fill-opacity="0.8"/>
<circle id="Ellipse 97" cx="414.695" cy="239.789" r="2.82105" fill="var(--fill-0, #FFC804)" fill-opacity="0.8"/>
<circle id="Ellipse 68" cx="425.979" cy="256.716" r="2.82105" fill="var(--fill-0, #FFC804)" fill-opacity="0.8"/>
</g>
</svg>
