<svg preserveAspectRatio="none" width="100%" height="100%" overflow="visible" style="display: block;" viewBox="0 0 51 51" fill="none" xmlns="http://www.w3.org/2000/svg">
<g id="Vector" filter="url(#filter0_d_11_536)">
<path d="M35.5201 2.9592C38.9341 0.547492 43.6764 2.96101 43.6764 7.11026V33.5698C43.6764 37.719 38.9342 40.1325 35.5202 37.7208L16.792 24.4913C13.9119 22.4567 13.9119 18.2236 16.792 16.189L35.5201 2.9592Z" fill="var(--fill-0, white)"/>
<path d="M7 3.90277C7 2.96364 7.76982 2.20233 8.71938 2.20233C9.66893 2.20233 10.4388 2.96364 10.4388 3.90277V36.7775C10.4388 37.7167 9.66893 38.4778 8.71938 38.4778C7.76982 38.4778 7 37.7167 7 36.7775V3.90277Z" fill="var(--fill-0, white)"/>
</g>
<defs>
<filter id="filter0_d_11_536" x="0" y="5.64912e-09" width="50.6764" height="50.68" filterUnits="userSpaceOnUse" color-interpolation-filters="sRGB">
<feFlood flood-opacity="0" result="BackgroundImageFix"/>
<feColorMatrix in="SourceAlpha" type="matrix" values="0 0 0 0 0 0 0 0 0 0 0 0 0 0 0 0 0 0 127 0" result="hardAlpha"/>
<feOffset dy="5"/>
<feGaussianBlur stdDeviation="3.5"/>
<feComposite in2="hardAlpha" operator="out"/>
<feColorMatrix type="matrix" values="0 0 0 0 0 0 0 0 0 0 0 0 0 0 0 0 0 0 0.07 0"/>
<feBlend mode="normal" in2="BackgroundImageFix" result="effect1_dropShadow_11_536"/>
<feBlend mode="normal" in="SourceGraphic" in2="effect1_dropShadow_11_536" result="shape"/>
</filter>
</defs>
</svg>
