<svg preserveAspectRatio="none" width="100%" height="100%" overflow="visible" style="display: block;" viewBox="0 0 51 51" fill="none" xmlns="http://www.w3.org/2000/svg">
<g id="sparkles-two">
<path id="Vector" d="M33.6838 16.8411C33.6838 15.6784 32.7414 14.7359 31.5787 14.7359C30.416 14.7359 29.4736 15.6784 29.4736 16.8411C29.4736 21.7008 28.3983 24.7193 26.5596 26.5579C24.721 28.3966 21.7025 29.4719 16.8428 29.4719C15.6801 29.4719 14.7376 30.4143 14.7376 31.577C14.7376 32.7397 15.6801 33.6821 16.8428 33.6821C21.7025 33.6821 24.721 34.7574 26.5596 36.5961C28.3983 38.4347 29.4736 41.4532 29.4736 46.3129C29.4736 47.4756 30.416 48.4181 31.5787 48.4181C32.7414 48.4181 33.6838 47.4756 33.6838 46.3129C33.6838 41.4532 34.7591 38.4347 36.5978 36.5961C38.4364 34.7574 41.4549 33.6821 46.3146 33.6821C47.4773 33.6821 48.4198 32.7397 48.4198 31.577C48.4198 30.4143 47.4773 29.4719 46.3146 29.4719C41.4549 29.4719 38.4364 28.3966 36.5978 26.5579C34.7591 24.7193 33.6838 21.7008 33.6838 16.8411Z" fill="var(--fill-0, white)"/>
<path id="Vector_2" d="M15.7902 4.21027C15.7902 3.04764 14.8477 2.10513 13.6851 2.10513C12.5224 2.10513 11.5799 3.04764 11.5799 4.21027C11.5799 7.24256 10.9066 8.94551 9.92693 9.92522C8.94722 10.9049 7.24427 11.5782 4.21197 11.5782C3.04935 11.5782 2.10684 12.5207 2.10684 13.6834C2.10684 14.846 3.04935 15.7885 4.21197 15.7885C7.24427 15.7885 8.94722 16.4618 9.92693 17.4415C10.9066 18.4212 11.5799 20.1242 11.5799 23.1565C11.5799 24.3191 12.5224 25.2616 13.6851 25.2616C14.8477 25.2616 15.7902 24.3191 15.7902 23.1565C15.7902 20.1242 16.4635 18.4212 17.4432 17.4415C18.4229 16.4618 20.1259 15.7885 23.1582 15.7885C24.3208 15.7885 25.2633 14.846 25.2633 13.6834C25.2633 12.5207 24.3208 11.5782 23.1582 11.5782C20.1259 11.5782 18.4229 10.9049 17.4432 9.92522C16.4635 8.94551 15.7902 7.24256 15.7902 4.21027Z" fill="var(--fill-0, white)"/>
</g>
</svg>
