<svg preserveAspectRatio="none" width="100%" height="100%" overflow="visible" style="display: block;" viewBox="0 0 798 809" fill="none" xmlns="http://www.w3.org/2000/svg">
<g id="Ellipse 13" filter="url(#filter0_d_10_6)">
<path d="M794 395C794 613.152 620 800.246 399 800.246C178 800.246 4 613.152 4 395C4 176.848 180.848 0 399 0C617.152 0 794 176.848 794 395Z" fill="url(#paint0_linear_10_6)"/>
<path d="M399 0.5C616.876 0.5 793.5 177.124 793.5 395C793.5 612.895 619.705 799.746 399 799.746C178.295 799.746 4.5 612.895 4.5 395C4.5 177.124 181.124 0.5 399 0.5Z" stroke="var(--stroke-0, black)"/>
</g>
<defs>
<filter id="filter0_d_10_6" x="0" y="0" width="798" height="808.246" filterUnits="userSpaceOnUse" color-interpolation-filters="sRGB">
<feFlood flood-opacity="0" result="BackgroundImageFix"/>
<feColorMatrix in="SourceAlpha" type="matrix" values="0 0 0 0 0 0 0 0 0 0 0 0 0 0 0 0 0 0 127 0" result="hardAlpha"/>
<feOffset dy="4"/>
<feGaussianBlur stdDeviation="2"/>
<feComposite in2="hardAlpha" operator="out"/>
<feColorMatrix type="matrix" values="0 0 0 0 0 0 0 0 0 0 0 0 0 0 0 0 0 0 0.25 0"/>
<feBlend mode="normal" in2="BackgroundImageFix" result="effect1_dropShadow_10_6"/>
<feBlend mode="normal" in="SourceGraphic" in2="effect1_dropShadow_10_6" result="shape"/>
</filter>
<linearGradient id="paint0_linear_10_6" x1="-43.5711" y1="426.001" x2="794" y2="321.773" gradientUnits="userSpaceOnUse">
<stop stop-color="#1743BF"/>
<stop offset="1" stop-color="#0093E6"/>
</linearGradient>
</defs>
</svg>
